<?xml version="1.0" standalone="no"?>
<!DOCTYPE svg PUBLIC "-//W3C//DTD SVG 20010904//EN"
 "http://www.w3.org/TR/2001/REC-SVG-20010904/DTD/svg10.dtd">
<svg version="1.0" xmlns="http://www.w3.org/2000/svg"
 width="279.000000pt" height="279.000000pt" viewBox="0 0 279.000000 279.000000"
 preserveAspectRatio="xMidYMid meet">
<metadata>
Created by potrace 1.11, written by Peter Selinger 2001-2013
</metadata>
<g transform="translate(0.000000,279.000000) scale(0.100000,-0.100000)"
fill="#000000" stroke="none">
<path d="M6 2768 c-3 -13 -6 -641 -6 -1395 l0 -1373 365 0 c358 0 365 0 355
19 -5 11 -10 29 -10 40 0 11 -11 28 -25 37 -14 9 -24 22 -22 28 2 6 -2 28 -9
50 -8 21 -14 49 -14 62 0 13 -8 33 -17 43 -16 20 -17 19 -55 -10 -25 -21 -44
-28 -57 -24 -11 3 -29 0 -41 -7 -19 -11 -24 -10 -37 9 -21 31 -33 29 -34 -4
l0 -28 -10 24 c-11 28 5 135 26 166 11 18 10 21 -5 21 -10 0 -16 -4 -14 -8 3
-5 -2 -15 -10 -24 -9 -8 -16 -12 -17 -7 0 4 -5 -1 -10 -12 -8 -17 -9 -16 -4 5
27 115 39 141 92 190 29 27 53 54 53 60 0 5 3 9 8 8 4 0 18 4 32 10 l25 11
-25 2 c-21 1 -22 2 -5 6 39 10 47 24 40 75 -7 47 -7 76 -2 143 2 17 0 44 -4
62 -4 18 -2 36 4 42 7 7 1 14 -19 22 l-29 12 24 6 c49 13 33 39 -19 31 -8 -1
-13 0 -10 2 45 34 44 34 35 18 -6 -12 -6 -13 6 -2 11 10 11 15 1 20 -9 6 -4
19 19 51 30 40 31 43 13 57 -19 14 -19 14 0 7 13 -4 17 -2 14 8 -3 8 -14 14
-26 14 -11 0 -24 4 -28 8 -4 4 -2 7 4 7 7 0 12 5 12 10 0 6 -9 10 -20 10 -11
0 -19 3 -19 8 4 22 -3 32 -21 32 -28 0 -25 12 8 32 16 11 21 18 12 18 -21 0
-62 -29 -55 -40 8 -13 -22 -19 -35 -7 -10 9 -12 9 -7 -4 3 -9 0 -16 -8 -16 -8
0 -11 7 -7 15 4 11 1 13 -9 8 -8 -4 -4 1 9 10 24 18 30 44 9 44 -8 0 -19 -12
-26 -27 -9 -20 -15 -23 -23 -15 -14 14 -32 16 -23 3 3 -5 1 -12 -4 -16 -6 -3
-8 4 -6 15 3 15 -1 20 -12 18 -9 -2 -18 3 -21 10 -2 8 2 12 13 10 10 -2 20 3
23 11 3 9 0 11 -8 6 -8 -5 -5 3 6 17 10 14 22 24 26 22 4 -2 9 0 13 6 8 13 -7
13 -42 -2 -15 -6 -30 -12 -33 -13 -26 -9 -39 -19 -34 -26 3 -5 10 -6 16 -3 7
5 8 2 4 -5 -6 -9 -13 -8 -27 5 -19 17 -13 37 11 40 21 3 22 4 11 18 -10 11 -8
16 8 21 10 3 22 12 25 20 5 13 0 13 -31 0 -21 -9 -40 -20 -43 -25 -3 -5 -11
-6 -17 -2 -8 5 -2 14 17 27 17 11 30 27 30 35 0 13 1 13 10 0 8 -12 10 -10 10
9 0 16 4 21 14 18 10 -4 13 -1 10 7 -4 9 3 14 21 13 15 0 32 6 38 13 10 10 6
11 -18 6 -28 -7 -28 -6 15 33 l45 40 -30 2 c-19 1 -23 3 -12 6 11 3 16 11 13
18 -3 9 0 12 8 9 18 -7 30 27 14 38 -7 4 -24 8 -38 9 -14 0 -19 3 -12 6 6 2
12 14 12 25 0 27 49 67 82 68 7 1 28 14 47 30 29 24 32 30 18 36 -9 3 -24 4
-32 0 -8 -3 -15 -1 -15 3 0 5 6 12 12 14 10 4 10 6 1 6 -7 1 -13 5 -13 11 0 5
7 6 17 3 10 -4 14 -2 9 5 -8 13 23 31 43 24 9 -3 11 0 7 7 -4 7 -2 18 4 26 7
8 9 15 4 16 -5 1 2 5 16 9 24 8 24 8 3 9 -32 1 -18 31 16 32 19 1 21 2 6 6
-11 2 -30 6 -42 9 -13 2 -23 9 -23 15 0 6 8 6 21 -2 15 -8 24 -8 32 0 6 6 19
11 28 11 11 0 16 6 14 18 -2 9 -4 21 -4 25 -1 5 -11 6 -24 2 -20 -5 -20 -5 3
10 25 16 25 16 -17 13 -33 -3 -39 -1 -31 9 6 7 26 13 44 13 19 0 34 5 34 10 0
15 -41 12 -74 -5 -39 -21 -46 -18 -16 5 14 11 33 20 42 20 9 0 20 5 23 10 3 6
17 10 31 10 13 0 24 5 24 10 0 6 10 10 23 10 18 1 16 4 -13 18 -35 17 -35 17
-16 36 13 13 16 21 8 24 -17 5 -15 22 2 22 7 0 19 7 26 15 9 11 16 13 24 5 5
-5 19 -10 29 -10 15 0 18 5 15 25 -5 25 5 34 17 15 10 -16 85 -12 85 4 0 9 7
12 20 9 16 -4 19 -2 14 11 -4 12 -2 15 9 11 8 -4 17 1 21 10 3 10 12 15 20 12
8 -3 22 1 33 8 10 8 28 15 41 15 12 0 22 4 22 8 0 5 16 14 35 22 19 8 35 17
35 21 0 11 53 29 92 31 29 1 35 4 30 17 -5 13 -3 14 10 3 9 -7 51 -15 94 -18
44 -2 99 -7 124 -10 25 -3 61 -5 80 -4 24 0 31 -3 21 -9 -9 -6 -1 -13 33 -26
26 -10 49 -15 53 -11 3 3 16 0 28 -8 24 -16 135 -48 135 -39 0 3 6 0 14 -6 7
-6 22 -8 31 -4 13 4 16 3 11 -5 -4 -7 -1 -12 9 -12 9 0 19 -9 22 -20 4 -16 8
-18 19 -9 8 7 18 9 21 5 4 -4 1 -11 -7 -16 -11 -7 -12 -10 -2 -10 7 0 10 -5 7
-10 -3 -6 2 -13 12 -17 10 -4 24 -13 31 -20 7 -7 21 -13 30 -13 10 0 23 -9 30
-20 7 -11 19 -20 28 -20 10 0 13 -6 9 -19 -5 -17 16 -28 70 -36 37 -5 85 -31
80 -43 -3 -9 0 -12 8 -9 8 3 27 -5 43 -19 16 -13 37 -23 47 -24 19 0 24 -20 5
-21 -7 0 -1 -5 14 -11 16 -5 28 -14 28 -19 0 -5 9 -9 19 -9 11 0 23 -4 26 -10
3 -5 15 -10 26 -10 11 0 18 -4 14 -9 -3 -5 -24 -9 -48 -9 -23 0 -55 0 -71 -1
l-29 -1 22 -24 c13 -13 34 -27 47 -30 21 -6 23 -9 14 -27 -6 -11 -8 -28 -5
-38 3 -10 1 -30 -5 -45 -7 -19 -7 -33 0 -46 8 -16 7 -18 -4 -14 -8 3 -18 -1
-22 -8 -18 -28 -13 -48 14 -62 35 -18 78 -56 64 -56 -6 0 -14 5 -17 10 -3 6
-14 10 -23 10 -14 -1 -13 -4 5 -19 l22 -19 -22 -6 c-17 -4 -19 -8 -9 -18 6 -6
12 -21 12 -31 0 -18 -1 -18 -24 -3 -34 21 -43 3 -11 -22 14 -11 25 -24 25 -30
0 -5 7 -15 15 -22 8 -7 15 -19 15 -26 0 -19 -26 -18 -34 1 -6 17 -36 21 -36 5
0 -6 7 -13 15 -16 19 -8 19 -24 0 -24 -18 0 -20 -16 -2 -24 8 -3 6 -9 -7 -20
-16 -13 -17 -16 -4 -16 8 0 23 -9 33 -20 11 -12 25 -18 34 -15 12 5 13 3 5 -5
-9 -9 -17 -9 -32 -1 -30 16 -62 14 -62 -4 0 -8 6 -15 14 -15 7 0 16 -9 19 -21
3 -11 15 -23 26 -26 19 -5 20 -7 5 -18 -15 -10 -13 -13 15 -24 19 -8 31 -21
31 -32 0 -21 -12 -24 -41 -9 -25 14 -25 -2 1 -18 11 -7 20 -20 20 -30 -1 -16
-2 -16 -14 1 -8 10 -17 14 -20 9 -3 -5 8 -22 24 -38 44 -43 36 -50 -15 -13
-25 18 -45 36 -45 41 0 4 -3 7 -7 6 -5 -1 -19 4 -33 12 -24 13 -24 12 -10 -6
8 -10 21 -25 28 -32 7 -8 9 -18 6 -24 -4 -7 -9 -6 -14 2 -4 6 -10 11 -14 11
-20 -3 -26 0 -21 9 14 23 -14 8 -29 -15 -9 -14 -20 -24 -24 -21 -4 2 -7 -9 -8
-25 -1 -17 3 -26 9 -22 6 4 8 0 4 -10 -4 -11 -2 -14 9 -10 16 6 18 -5 5 -25
-6 -10 -10 -10 -21 3 -17 21 -33 19 -27 -4 3 -13 0 -18 -8 -15 -7 3 -16 1 -20
-5 -3 -6 -1 -11 4 -11 6 0 11 -10 11 -21 0 -12 8 -28 18 -35 15 -12 14 -13
-11 -4 -39 14 -40 13 -23 -12 20 -28 20 -50 1 -24 -15 20 -15 20 -14 0 0 -10
4 -41 8 -68 7 -41 5 -55 -10 -80 -20 -32 -25 -81 -10 -90 4 -3 6 -18 3 -32 -3
-18 -1 -25 6 -20 6 3 13 2 17 -4 3 -5 -1 -10 -9 -10 -9 0 -16 -5 -16 -11 0 -7
-11 -22 -25 -35 -25 -23 -25 -24 -6 -43 11 -11 16 -23 12 -26 -16 -9 0 -41 29
-59 21 -12 27 -22 23 -34 -3 -9 -3 -14 1 -10 8 7 55 -37 57 -53 4 -23 20 -62
29 -69 12 -8 23 -53 12 -46 -11 6 -9 -38 3 -67 4 -10 5 -21 1 -24 -3 -4 -6 -1
-6 5 0 7 -3 12 -8 12 -4 0 -7 -19 -5 -42 1 -24 -1 -32 -4 -18 -8 43 -26 50
-20 7 4 -22 2 -35 -4 -32 -5 4 -9 0 -9 -7 0 -7 -3 -23 -6 -35 l-6 -23 281 0
281 0 0 885 c0 579 -4 885 -10 885 -6 0 -10 5 -10 11 0 5 5 7 10 4 14 -9 12
28 -2 44 -10 11 -10 13 0 7 9 -5 12 4 12 33 0 29 -5 41 -17 44 -16 4 -16 5 1
6 15 1 16 4 6 16 -8 10 -9 15 -1 15 8 0 11 120 11 420 l-1 420 -142 0 c-101 0
-147 -4 -156 -12 -11 -10 -12 -10 -7 -1 6 10 -251 13 -1232 13 l-1240 0 -6
-22z m1704 -18 c0 -5 -4 -10 -10 -10 -5 0 -10 5 -10 10 0 6 5 10 10 10 6 0 10
-4 10 -10z m250 -53 c-10 -9 -11 -9 -6 1 4 7 2 12 -6 12 -9 0 -9 3 2 10 19 12
27 -7 10 -23z m570 23 c8 -5 11 -10 5 -10 -5 0 -17 5 -25 10 -8 5 -10 10 -5
10 6 0 17 -5 25 -10z m-1234 -29 c11 9 14 8 14 -5 0 -9 -8 -19 -17 -22 -10 -3
-30 -11 -45 -19 -16 -8 -28 -11 -28 -8 0 14 55 63 58 53 3 -8 8 -7 18 1z m779
-31 c3 -5 1 -10 -4 -10 -6 0 -11 5 -11 10 0 6 2 10 4 10 3 0 8 -4 11 -10z
m-148 -6 c-3 -3 -12 -4 -19 -1 -8 3 -5 6 6 6 11 1 17 -2 13 -5z m-1407 -34 c0
-5 -4 -10 -10 -10 -5 0 -10 5 -10 10 0 6 5 10 10 10 6 0 10 -4 10 -10z m1340
0 c0 -5 -5 -10 -11 -10 -5 0 -7 5 -4 10 3 6 8 10 11 10 2 0 4 -4 4 -10z
m-1500 -29 c0 -12 -29 -23 -41 -15 -5 3 -7 10 -4 15 8 12 45 12 45 0z m205
-22 c-4 -5 -2 -9 3 -9 20 0 43 -70 39 -119 -4 -49 -42 -141 -58 -141 -5 0 -8
-6 -6 -12 1 -7 -5 -13 -13 -13 -8 0 -18 -4 -22 -10 -5 -6 -8 -5 -8 4 0 11 -3
11 -15 1 -8 -6 -19 -9 -25 -5 -22 14 -7 34 45 60 72 35 88 58 74 109 -6 20 -7
51 -4 67 6 25 4 28 -12 22 -16 -6 -16 -5 -4 10 7 9 9 17 3 17 -12 0 -34 -25
-27 -32 3 -3 -1 -11 -10 -18 -9 -7 -19 -10 -22 -6 -4 4 -1 11 7 16 13 8 13 10
1 10 -8 0 -22 -7 -32 -16 -12 -11 -27 -14 -48 -9 -39 8 -29 27 13 24 17 -1 40
2 51 6 31 14 65 47 58 58 -3 6 -1 7 6 3 6 -4 9 -12 6 -17z m-71 -15 c5 -14 4
-15 -9 -4 -17 14 -19 20 -6 20 5 0 12 -7 15 -16z m2238 -26 c-7 -7 -12 -8 -12
-2 0 14 12 26 19 19 2 -3 -1 -11 -7 -17z m-218 4 c3 -5 -1 -9 -9 -9 -8 0 -12
4 -9 9 3 4 7 8 9 8 2 0 6 -4 9 -8z m63 -5 c0 -8 -6 -14 -14 -14 -17 0 -17 14
0 20 6 3 12 6 13 6 0 1 1 -5 1 -12z m-2187 -17 c0 -5 -4 -10 -10 -10 -5 0 -10
5 -10 10 0 6 5 10 10 10 6 0 10 -4 10 -10z m1897 -16 c-3 -3 -12 -4 -19 -1 -8
3 -5 6 6 6 11 1 17 -2 13 -5z m303 -24 c0 -5 -2 -10 -4 -10 -3 0 -8 5 -11 10
-3 6 -1 10 4 10 6 0 11 -4 11 -10z m-2150 -36 c0 -33 -2 -35 -27 -33 -16 2
-33 7 -40 12 -7 5 -15 1 -22 -10 -8 -14 -12 -16 -22 -5 -7 6 -18 12 -23 12 -6
0 -3 -5 7 -11 18 -11 24 -39 7 -39 -5 0 -10 -6 -10 -12 0 -21 -13 -35 -40 -43
-23 -6 -23 -6 -7 7 14 10 17 21 12 41 -8 29 -25 37 -25 12 0 -8 5 -15 10 -15
6 0 10 -5 10 -11 0 -6 -8 -8 -17 -5 -22 7 -37 -3 -47 -29 -6 -15 -9 -17 -16
-6 -5 9 -1 21 11 35 11 11 17 26 14 33 -9 24 32 52 82 57 26 3 50 6 53 7 3 0
16 0 29 -1 14 -1 21 2 17 9 -10 16 2 31 25 31 15 0 19 -7 19 -36z m-120 16 c0
-5 -2 -10 -4 -10 -3 0 -8 5 -11 10 -3 6 -1 10 4 10 6 0 11 -4 11 -10z m2100 0
c0 -5 -2 -10 -4 -10 -3 0 -8 5 -11 10 -3 6 -1 10 4 10 6 0 11 -4 11 -10z
m-1863 -32 c-3 -8 -6 -5 -6 6 -1 11 2 17 5 13 3 -3 4 -12 1 -19z m1418 2 c3
-5 1 -10 -4 -10 -6 0 -11 5 -11 10 0 6 2 10 4 10 3 0 8 -4 11 -10z m635 -4 c0
-3 -4 -8 -10 -11 -5 -3 -10 -1 -10 4 0 6 5 11 10 11 6 0 10 -2 10 -4z m-2550
-36 c-24 -15 -36 -11 -14 4 10 8 21 12 24 10 2 -3 -2 -9 -10 -14z m2520 12 c0
-13 -12 -22 -22 -16 -10 6 -1 24 13 24 5 0 9 -4 9 -8z m-2513 -64 c-9 -6 -9
-8 0 -8 7 0 10 -6 7 -14 -8 -22 -53 -17 -51 5 1 11 5 19 10 19 5 0 4 6 -3 14
-10 13 -7 13 19 3 20 -7 26 -14 18 -19z m2127 -16 c3 -5 -1 -9 -9 -9 -8 0 -12
4 -9 9 3 4 7 8 9 8 2 0 6 -4 9 -8z m493 -4 c-2 -7 3 -22 12 -32 15 -18 15 -18
-6 -7 -23 11 -30 31 -16 44 10 11 15 8 10 -5z m-2060 -4 c-3 -3 -12 -4 -19 -1
-8 3 -5 6 6 6 11 1 17 -2 13 -5z m1948 -4 c3 -5 1 -10 -4 -10 -6 0 -11 5 -11
10 0 6 2 10 4 10 3 0 8 -4 11 -10z m-65 -21 c0 -6 -4 -7 -10 -4 -5 3 -10 11
-10 16 0 6 5 7 10 4 6 -3 10 -11 10 -16z m40 17 c0 -3 -4 -8 -10 -11 -5 -3
-10 -1 -10 4 0 6 5 11 10 11 6 0 10 -2 10 -4z m-2422 -31 c-3 -3 -9 2 -12 12
-6 14 -5 15 5 6 7 -7 10 -15 7 -18z m100 3 c-6 -18 -28 -21 -28 -4 0 9 7 16
16 16 9 0 14 -5 12 -12z m201 -22 c9 -11 9 -16 -1 -22 -7 -4 -10 -4 -6 1 4 4
3 14 -3 22 -6 7 -9 13 -6 13 2 0 10 -6 16 -14z m-165 -12 c3 -8 2 -12 -4 -9
-6 3 -10 10 -10 16 0 14 7 11 14 -7z m2496 6 c0 -5 -8 -10 -17 -10 -15 0 -16
2 -3 10 19 12 20 12 20 0z m-2300 -46 c8 -20 15 -24 33 -20 12 3 16 3 10 0 -7
-3 -13 -12 -13 -20 0 -29 -34 -10 -49 28 -8 22 -6 38 6 38 2 0 8 -12 13 -26z
m-105 -25 c-4 -5 0 -9 8 -9 20 0 28 -25 14 -39 -8 -8 -6 -11 7 -11 10 0 14 -4
10 -12 -11 -17 -54 38 -54 68 0 15 4 23 10 19 6 -4 8 -11 5 -16z m160 -59 c3
-5 1 -10 -4 -10 -6 0 -11 5 -11 10 0 6 2 10 4 10 3 0 8 -4 11 -10z m15 -30 c0
-5 -5 -10 -11 -10 -5 0 -7 5 -4 10 3 6 8 10 11 10 2 0 4 -4 4 -10z m1955 -99
c0 -19 -8 -27 -37 -37 -31 -11 -37 -10 -42 3 -4 10 -2 13 7 10 10 -4 13 2 9
19 -2 14 0 24 7 24 6 0 11 -4 11 -8 0 -4 9 -8 20 -8 25 0 26 13 3 20 -14 4
-14 4 2 3 14 -2 20 -10 20 -26z m-47 -75 c-13 -10 -15 -15 -6 -24 7 -7 9 -12
4 -12 -4 0 -14 6 -22 14 -12 13 -12 16 3 25 26 15 41 13 21 -3z m312 -11 c11
-13 10 -14 -4 -9 -9 3 -16 10 -16 15 0 13 6 11 20 -6z m-2280 1 c0 -3 -4 -8
-10 -11 -5 -3 -10 -1 -10 4 0 6 5 11 10 11 6 0 10 -2 10 -4z m2238 -44 c-7 -8
-12 -18 -10 -21 2 -3 -2 -7 -10 -9 -10 -3 -10 -2 1 6 15 11 -2 27 -19 17 -5
-3 -10 -2 -10 4 0 5 9 13 20 16 12 4 17 11 13 18 -4 7 1 6 10 -2 14 -11 15
-16 5 -29z m10 -82 c-7 -10 -14 -18 -15 -16 -6 6 9 36 18 36 5 0 4 -9 -3 -20z
m-238 -129 c0 -13 -29 -35 -37 -28 -7 8 15 37 28 37 5 0 9 -4 9 -9z m187 -57
c-3 -3 -12 -4 -19 -1 -8 3 -5 6 6 6 11 1 17 -2 13 -5z m113 -175 c0 -11 -3
-11 -24 -3 -23 9 -20 23 4 17 11 -3 20 -9 20 -14z m-2408 -141 c-9 -9 -12 -7
-12 12 0 19 3 21 12 12 9 -9 9 -15 0 -24z m148 22 c0 -5 -4 -10 -10 -10 -5 0
-10 5 -10 10 0 6 5 10 10 10 6 0 10 -4 10 -10z m-115 -9 c3 -5 2 -12 -3 -15
-5 -3 -9 1 -9 9 0 17 3 19 12 6z m80 -1 c3 -6 -1 -7 -9 -4 -18 7 -21 14 -7 14
6 0 13 -4 16 -10z m2045 -30 c0 -5 -5 -10 -11 -10 -5 0 -7 5 -4 10 3 6 8 10
11 10 2 0 4 -4 4 -10z m-240 -110 c0 -5 -5 -10 -11 -10 -5 0 -7 5 -4 10 3 6 8
10 11 10 2 0 4 -4 4 -10z m24 -36 c5 -14 4 -15 -9 -4 -17 14 -19 20 -6 20 5 0
12 -7 15 -16z m376 -60 c0 -8 -7 -14 -15 -14 -18 0 -20 20 -2 21 10 0 10 2 0
6 -7 2 -13 9 -13 15 0 6 6 6 15 -2 8 -7 15 -19 15 -26z m-85 6 c3 -5 2 -10 -4
-10 -5 0 -13 5 -16 10 -3 6 -2 10 4 10 5 0 13 -4 16 -10z m145 -118 c0 -5 -7
-9 -15 -9 -8 0 -12 4 -9 9 3 4 9 8 15 8 5 0 9 -4 9 -8z m22 -14 c-7 -7 -12 -8
-12 -2 0 14 12 26 19 19 2 -3 -1 -11 -7 -17z m-95 -104 c-3 -3 -12 -4 -19 -1
-8 3 -5 6 6 6 11 1 17 -2 13 -5z m-47 -24 c0 -5 -2 -10 -4 -10 -3 0 -8 5 -11
10 -3 6 -1 10 4 10 6 0 11 -4 11 -10z m60 -2 c0 -4 -4 -8 -9 -8 -6 0 -12 4
-15 8 -3 5 1 9 9 9 8 0 15 -4 15 -9z m-80 -78 c0 -5 -2 -10 -4 -10 -3 0 -8 5
-11 10 -3 6 -1 10 4 10 6 0 11 -4 11 -10z m40 -21 c0 -6 -4 -7 -10 -4 -5 3
-10 11 -10 16 0 6 5 7 10 4 6 -3 10 -11 10 -16z m46 9 c4 -6 3 -8 -4 -4 -6 3
-15 -2 -21 -11 -6 -10 -11 -13 -11 -7 0 9 19 34 26 34 2 0 6 -5 10 -12z m28
-138 c-6 -6 -10 -2 -11 12 -2 16 1 18 10 9 7 -7 8 -14 1 -21z m-377 -72 c-3
-8 -6 -5 -6 6 -1 11 2 17 5 13 3 -3 4 -12 1 -19z m350 -15 c-4 -3 -2 -12 4
-20 7 -8 8 -13 1 -13 -5 0 -15 6 -21 14 -9 11 -9 15 1 19 19 8 22 8 15 0z
m-194 -83 c-3 -11 -9 -17 -15 -14 -5 3 -4 12 3 20 16 19 18 18 12 -6z m-206
-12 c-3 -8 -6 -5 -6 6 -1 11 2 17 5 13 3 -3 4 -12 1 -19z m-1782 -148 c3 -5 4
-10 1 -10 -2 0 -12 -3 -20 -6 -12 -5 -15 -2 -10 10 7 18 20 21 29 6z m2217
-84 c-3 -6 -5 -18 -4 -28 2 -9 -1 -18 -5 -21 -5 -3 -9 9 -9 27 0 20 5 33 12
33 7 0 10 -5 6 -11z"/>
<path d="M538 2313 c7 -3 16 -2 19 1 4 3 -2 6 -13 5 -11 0 -14 -3 -6 -6z"/>
<path d="M1039 2265 c-19 -14 -37 -36 -41 -48 -10 -35 -9 -87 2 -87 6 0 10 -6
10 -13 0 -29 45 -41 106 -29 31 7 60 9 65 6 5 -3 9 0 9 6 0 6 4 9 10 5 11 -7
51 30 42 40 -4 3 1 3 11 -1 23 -8 22 -10 -17 -45 -21 -18 -33 -36 -29 -44 2
-8 -5 -27 -16 -42 -40 -51 -91 -135 -91 -148 0 -7 -7 -18 -15 -25 -8 -7 -15
-21 -15 -31 0 -11 -4 -19 -10 -19 -5 0 -10 -10 -10 -23 0 -12 -9 -30 -20 -40
-15 -13 -18 -22 -12 -35 5 -9 7 -23 5 -29 -3 -7 -1 -13 5 -13 8 0 10 -7 14
-51 2 -15 7 -19 23 -15 11 3 28 6 37 6 10 0 20 11 24 25 5 21 9 23 21 13 11
-9 16 -9 23 1 4 8 16 11 28 7 11 -4 23 -3 26 3 13 20 86 -20 86 -47 0 -18 75
-8 92 13 15 17 19 18 28 5 5 -8 11 -19 13 -25 2 -6 10 -5 20 4 14 11 18 9 29
-15 16 -39 18 -40 27 -26 11 18 41 4 34 -16 -5 -11 -2 -14 8 -10 8 3 26 0 39
-7 20 -11 28 -10 53 5 16 10 38 32 48 49 l19 32 -24 24 c-14 13 -28 35 -32 47
-3 13 -12 27 -18 31 -8 6 -7 10 2 14 9 3 7 12 -8 33 -11 15 -20 35 -20 43 0
17 -24 39 -33 32 -4 -3 -5 -2 -2 2 3 3 -1 13 -9 22 -39 44 -53 87 -49 144 4
51 1 63 -21 92 -30 39 -76 56 -156 58 -32 1 -56 6 -53 10 6 11 -46 56 -64 57
-7 0 -13 6 -13 14 0 13 -57 43 -72 38 -5 -1 -8 3 -8 9 0 5 -4 7 -10 4 -5 -3
-10 -1 -10 4 0 20 -46 11 -81 -14z m413 -427 c38 -18 64 -38 77 -59 21 -35 20
-54 -2 -26 -6 9 -46 31 -87 49 -63 27 -88 32 -159 34 -78 1 -86 0 -108 -24
-30 -32 -40 -22 -17 17 18 31 35 38 114 43 60 5 123 -7 182 -34z"/>
<path d="M1675 2180 c-8 -12 -70 -42 -105 -50 -20 -5 -24 -11 -22 -34 2 -16
10 -39 19 -52 20 -31 77 -66 96 -58 9 3 25 -4 36 -15 12 -12 26 -21 31 -21 6
0 10 -4 10 -9 0 -17 95 11 118 36 22 22 25 23 36 7 10 -13 15 -14 20 -5 5 7 1
20 -8 30 -9 10 -16 22 -14 27 1 5 -5 28 -14 51 -20 48 -81 101 -101 86 -16
-12 -56 -11 -65 2 -10 14 -30 17 -37 5z"/>
<path d="M2160 2064 c7 -7 20 -16 31 -19 11 -4 17 -11 13 -16 -4 -6 -11 -6
-19 1 -10 8 -19 8 -35 0 -21 -12 -19 -30 5 -30 7 0 20 -6 27 -12 7 -7 26 -19
41 -27 24 -13 29 -13 43 1 14 13 12 16 -15 28 -30 12 -42 30 -20 30 8 0 7 6
-2 17 -12 15 -12 16 6 9 13 -5 17 -4 10 3 -5 5 -29 14 -53 19 -36 8 -41 8 -32
-4z"/>
<path d="M2073 1995 c0 -8 7 -15 15 -15 7 0 12 5 10 12 -6 18 -25 21 -25 3z"/>
<path d="M2062 1938 c2 -6 13 -16 23 -22 11 -6 27 -19 36 -28 9 -10 26 -18 38
-18 12 0 31 -5 42 -10 10 -6 19 -8 19 -5 0 3 -20 14 -45 26 -25 12 -45 25 -45
29 0 7 -55 40 -67 40 -3 0 -3 -5 -1 -12z"/>
<path d="M1818 1933 c7 -3 16 -2 19 1 4 3 -2 6 -13 5 -11 0 -14 -3 -6 -6z"/>
<path d="M1930 1906 c0 -8 4 -17 8 -20 4 -2 8 4 8 15 0 10 -4 19 -8 19 -4 0
-8 -6 -8 -14z"/>
<path d="M2052 1890 c7 -11 22 -20 33 -19 19 0 19 1 -2 11 -13 6 -23 15 -23
20 0 4 -5 8 -10 8 -6 0 -5 -8 2 -20z"/>
<path d="M1823 1873 c9 -2 25 -2 35 0 9 3 1 5 -18 5 -19 0 -27 -2 -17 -5z"/>
<path d="M1928 1863 c6 -2 18 -2 25 0 6 3 1 5 -13 5 -14 0 -19 -2 -12 -5z"/>
<path d="M2088 1853 c7 -3 16 -2 19 1 4 3 -2 6 -13 5 -11 0 -14 -3 -6 -6z"/>
<path d="M2080 1836 c0 -2 14 -6 30 -8 17 -3 30 -1 30 4 0 4 -13 8 -30 8 -16
0 -30 -2 -30 -4z"/>
<path d="M2241 1836 c12 -10 60 -16 54 -6 -3 5 -18 10 -32 10 -15 0 -24 -2
-22 -4z"/>
<path d="M1824 1683 c2 -13 0 -26 -5 -29 -12 -7 -11 -44 1 -44 6 0 10 6 10 14
0 8 4 16 9 18 5 2 3 17 -5 33 -10 22 -13 24 -10 8z"/>
<path d="M1256 1595 c-19 -15 -19 -15 2 -15 13 0 22 6 22 15 0 18 0 18 -24 0z"/>
<path d="M1810 1586 c0 -2 7 -7 16 -10 8 -3 12 -2 9 4 -6 10 -25 14 -25 6z"/>
<path d="M406 1405 c-9 -9 -16 -12 -16 -7 0 23 -33 4 -36 -21 -2 -24 21 -46
34 -32 3 3 0 5 -5 5 -13 0 -10 35 3 35 16 1 49 23 43 30 -4 3 -14 -1 -23 -10z"/>
<path d="M446 1391 c-3 -5 3 -11 15 -14 16 -4 18 -3 8 9 -13 16 -16 17 -23 5z"/>
<path d="M2400 1271 c0 -5 7 -12 16 -15 14 -5 15 -4 4 9 -14 17 -20 19 -20 6z"/>
<path d="M2244 1180 c0 -10 6 -16 13 -13 7 3 13 9 13 13 0 4 -6 10 -13 13 -7
3 -13 -3 -13 -13z"/>
<path d="M912 605 c0 -16 2 -22 5 -12 2 9 2 23 0 30 -3 6 -5 -1 -5 -18z"/>
<path d="M1680 609 c7 -11 14 -18 17 -15 8 8 -5 36 -17 36 -7 0 -7 -6 0 -21z"/>
<path d="M1710 580 c0 -47 -5 -55 -32 -51 -5 0 -8 -8 -8 -20 0 -12 -5 -19 -12
-17 -18 6 -38 -17 -38 -42 0 -12 -6 -28 -14 -35 -8 -9 -12 -30 -11 -57 2 -24
-1 -74 -5 -113 -6 -51 -5 -72 3 -77 18 -12 27 -9 27 7 0 8 -4 15 -8 15 -5 0
-8 10 -6 22 1 13 3 34 3 48 1 14 15 41 31 60 16 19 31 40 31 45 1 6 3 25 5 44
2 32 80 161 96 161 5 0 8 9 8 19 0 20 -25 35 -41 25 -5 -3 -9 0 -9 5 0 6 -4
11 -10 11 -5 0 -10 -22 -10 -50z"/>
<path d="M930 540 c-10 -29 -10 -42 0 -60 7 -12 9 -36 6 -52 -4 -20 1 -43 15
-71 18 -34 21 -53 17 -120 -3 -43 -9 -82 -15 -85 -6 -4 -14 -25 -19 -47 -7
-29 -15 -41 -31 -43 -15 -2 -22 -12 -25 -33 l-5 -29 83 0 83 0 -6 65 c-4 49
-3 65 7 65 9 0 11 11 6 41 -4 25 -3 38 3 35 6 -4 11 31 13 88 2 52 0 92 -4 89
-5 -2 -8 16 -8 41 0 25 -4 48 -10 51 -5 3 -10 12 -10 18 0 7 4 6 10 -3 8 -12
10 -11 10 8 0 16 -5 22 -17 20 -10 -2 -19 5 -22 18 -4 13 -13 20 -23 18 -10
-1 -18 3 -18 10 0 28 -29 10 -40 -24z"/>
<path d="M1685 550 c3 -5 8 -10 11 -10 2 0 4 5 4 10 0 6 -5 10 -11 10 -5 0 -7
-4 -4 -10z"/>
<path d="M1541 294 c0 -11 3 -14 6 -6 3 7 2 16 -1 19 -3 4 -6 -2 -5 -13z"/>
<path d="M1980 206 c-12 -20 -31 -71 -41 -113 -11 -43 -25 -81 -32 -85 -6 -4
61 -8 151 -8 l162 0 0 41 c0 24 -4 38 -10 34 -5 -3 -10 -18 -10 -32 0 -39 -10
-22 -14 23 -2 22 -4 45 -5 53 -1 11 -6 10 -21 -4 -11 -10 -19 -28 -18 -39 2
-14 -4 -22 -17 -24 -17 -4 -18 -2 -6 12 14 17 7 71 -9 61 -4 -3 -11 3 -13 12
-3 10 -5 -3 -6 -29 0 -27 -5 -48 -10 -48 -4 0 -24 41 -43 91 l-35 91 -23 -36z"/>
<path d="M1043 60 c4 -14 7 -33 7 -42 0 -13 8 -18 26 -18 22 0 24 3 18 23 -3
12 -7 22 -8 22 0 0 -12 9 -25 20 l-24 20 6 -25z"/>
</g>
</svg>
